<?xml version="1.0" encoding="UTF-8"?>
<svg version="1.1" xmlns="http://www.w3.org/2000/svg" width="1024" height="1024">
<path d="M0 0 C19.15998334 -0.39652672 38.22430932 1.63041903 57.01953125 5.22265625 C61.67163375 6.10468694 66.30414341 6.66102669 71.015625 7.125 C71.015625 7.785 71.015625 8.445 71.015625 9.125 C71.59900635 9.22151855 72.1823877 9.31803711 72.78344727 9.41748047 C79.78814856 10.68455891 86.27644693 12.81350755 92.953125 15.25 C94.98154784 15.9859877 97.01143469 16.7179567 99.04296875 17.4453125 C100.36929321 17.92895264 100.36929321 17.92895264 101.72241211 18.42236328 C104.09394772 19.27147774 104.09394772 19.27147774 107.015625 19.125 C107.015625 19.785 107.015625 20.445 107.015625 21.125 C107.8303125 21.37636719 108.645 21.62773438 109.484375 21.88671875 C131.96472983 29.76976353 152.62338813 43.21972968 171.015625 58.125 C172.02882813 58.92679688 173.04203125 59.72859375 174.0859375 60.5546875 C195.21475678 77.46978214 214.14151961 97.46260534 229.015625 120.125 C229.45374512 120.78983398 229.89186523 121.45466797 230.34326172 122.13964844 C237.33942306 132.8103515 243.63482894 143.55741181 249.015625 155.125 C249.50192383 156.14182861 249.50192383 156.14182861 249.99804688 157.17919922 C263.58155644 185.62380964 270.82172609 215.86874342 274.015625 247.125 C274.1098877 247.9296167 274.20415039 248.7342334 274.30126953 249.56323242 C280.13822108 301.25523359 267.30390267 355.54612324 243.015625 401.125 C242.6865918 401.7550293 242.35755859 402.38505859 242.01855469 403.03417969 C236.05563247 414.4011802 228.87954651 424.79570629 221.38500977 435.20239258 C219.78487076 437.44897747 218.25086879 439.65451242 217.015625 442.125 C215.86073618 443.29687248 214.70248074 444.46562059 213.52734375 445.6171875 C211.25535262 447.88330785 209.08720346 450.24283945 206.90332031 452.59350586 C196.16704125 464.14764167 185.50029704 475.43019881 173.015625 485.125 C172.01015625 485.92421875 171.0046875 486.7234375 169.96875 487.546875 C161.95378071 493.873443 153.61887437 499.6295911 145.015625 505.125 C144.41524414 505.51042969 143.81486328 505.89585937 143.19628906 506.29296875 C120.08284951 521.00722793 84.90476873 540.10329051 57.015625 539.125 C56.685625 539.785 56.355625 540.445 56.015625 541.125 C53.12369188 541.58115028 50.30111439 541.92395175 47.390625 542.1875 C45.79417131 542.34404043 44.1978152 542.50157942 42.6015625 542.66015625 C41.42956299 542.77363403 41.42956299 542.77363403 40.23388672 542.8894043 C38.29102506 543.09575049 36.35526331 543.36683529 34.421875 543.6484375 C-2.24057411 548.77781685 -42.0220345 543.93709418 -76.984375 532.125 C-77.98186768 531.80112305 -77.98186768 531.80112305 -78.99951172 531.47070312 C-107.15350435 522.3267846 -133.69036299 508.41757147 -157.1796875 490.4453125 C-158.93068431 489.06918146 -158.93068431 489.06918146 -160.921875 488.25 C-163.14070659 487.03972822 -164.63994862 485.55214782 -166.37890625 483.73828125 C-170.66891891 479.42739262 -175.28666948 475.37844053 -179.953125 471.48046875 C-184.63196036 467.56491797 -188.81640397 463.25822332 -192.984375 458.8125 C-193.57323486 458.18899658 -194.16209473 457.56549316 -194.76879883 456.9230957 C-198.984375 452.36758384 -198.984375 452.36758384 -198.984375 450.125 C-199.644375 450.125 -200.304375 450.125 -200.984375 450.125 C-202.26196289 448.77075195 -202.26196289 448.77075195 -203.70703125 446.86328125 C-204.24150879 446.16235352 -204.77598633 445.46142578 -205.32666016 444.73925781 C-205.89433105 443.97967773 -206.46200195 443.22009766 -207.046875 442.4375 C-207.62743652 441.66889648 -208.20799805 440.90029297 -208.80615234 440.10839844 C-219.91431938 425.31591529 -219.91431938 425.31591529 -224.6015625 417.390625 C-225.91715391 415.0354324 -225.91715391 415.0354324 -227.984375 413.125 C-230.11881418 409.53494328 -232.01872139 405.80955496 -233.984375 402.125 C-234.69959622 400.82110698 -235.41578767 399.51774582 -236.1328125 398.21484375 C-241.46759133 388.43594624 -245.94471136 378.50342844 -249.984375 368.125 C-250.644375 368.125 -251.304375 368.125 -251.984375 368.125 C-252.12875 366.92875 -252.273125 365.7325 -252.421875 364.5 C-252.60839201 363.04154062 -252.79588168 361.58320528 -252.984375 360.125 C-253.12875 358.990625 -253.273125 357.85625 -253.421875 356.6875 C-253.6075 355.841875 -253.793125 354.99625 -253.984375 354.125 C-254.644375 353.795 -255.304375 353.465 -255.984375 353.125 C-256.62596099 350.55865606 -257.00636646 347.98676794 -257.421875 345.375 C-257.7003125 344.26125 -257.7003125 344.26125 -257.984375 343.125 C-258.644375 342.795 -259.304375 342.465 -259.984375 342.125 C-259.95472656 341.13113281 -259.92507813 340.13726562 -259.89453125 339.11328125 C-259.98614074 335.04661628 -260.57487148 331.27174903 -261.421875 327.3125 C-261.55658203 326.64541016 -261.69128906 325.97832031 -261.83007812 325.29101562 C-262.58820278 321.60359342 -262.58820278 321.60359342 -263.984375 318.125 C-264.19200466 316.74512789 -264.35151807 315.35781665 -264.484375 313.96875 C-264.56631104 313.11917725 -264.64824707 312.26960449 -264.73266602 311.39428711 C-264.81572998 310.48042236 -264.89879395 309.56655762 -264.984375 308.625 C-265.11573853 307.22423218 -265.11573853 307.22423218 -265.24975586 305.79516602 C-265.88418489 298.80816898 -266.34444015 291.82178453 -266.64257812 284.8125 C-266.79604528 281.44875045 -267.09171443 278.36905914 -267.984375 275.125 C-268.1050787 271.38318541 -268.14226803 268.04909062 -267.51220703 264.36157227 C-267.01048259 261.28508713 -266.67819387 258.24889419 -266.40625 255.14453125 C-264.13980336 230.55634072 -260.09999396 206.94992089 -252.66113281 183.35375977 C-252.2244973 181.91579238 -251.82464673 180.46589315 -251.47070312 179.00537109 C-250.75133507 176.22395906 -249.47532141 173.77493723 -248.234375 171.1875 C-246.08383879 166.61953527 -244.16174131 162.05156442 -242.421875 157.3125 C-240.79590656 153.0039401 -239.05609259 149.27228815 -236.48828125 145.46484375 C-234.81462174 142.86089038 -233.32578298 140.18663964 -231.83129883 137.47705078 C-213.90112104 104.96940059 -188.49443579 76.51277426 -158.984375 54.125 C-158.42766113 53.7007373 -157.87094727 53.27647461 -157.29736328 52.83935547 C-133.11909726 34.56101492 -104.85939498 21.10258469 -75.984375 12.125 C-75.984375 11.465 -75.984375 10.805 -75.984375 10.125 C-75.38794189 10.08036621 -74.79150879 10.03573242 -74.17700195 9.98974609 C-67.68086041 9.43143962 -61.51245231 8.23493327 -55.171875 6.75 C-36.83859608 2.63136404 -18.75204041 0.58829931 0 0 Z " fill="#FE7E83" transform="translate(507.984375,101.875)"/>
<path d="M0 0 C10.39112193 9.78312065 17.04022215 25.18772184 23 38 C23.32419922 38.67788574 23.64839844 39.35577148 23.98242188 40.05419922 C37.56593144 68.49880964 44.80610109 98.74374342 48 130 C48.0942627 130.8046167 48.18852539 131.6092334 48.28564453 132.43823242 C54.12259608 184.13023359 41.28827767 238.42112324 17 284 C16.6709668 284.6300293 16.34193359 285.26005859 16.00292969 285.90917969 C10.04000747 297.2761802 2.86392151 307.67070629 -4.63061523 318.07739258 C-6.23075424 320.32397747 -7.76475621 322.52951242 -9 325 C-10.15488882 326.17187248 -11.31314426 327.34062059 -12.48828125 328.4921875 C-14.76027238 330.75830785 -16.92842154 333.11783945 -19.11230469 335.46850586 C-29.84858375 347.02264167 -40.51532796 358.30519881 -53 368 C-54.00546875 368.79921875 -55.0109375 369.5984375 -56.046875 370.421875 C-64.06184429 376.748443 -72.39675063 382.5045911 -81 388 C-81.60038086 388.38542969 -82.20076172 388.77085937 -82.81933594 389.16796875 C-105.93277549 403.88222793 -141.11085627 422.97829051 -169 422 C-169.33 422.66 -169.66 423.32 -170 424 C-172.89193312 424.45615028 -175.71451061 424.79895175 -178.625 425.0625 C-180.22145369 425.21904043 -181.8178098 425.37657942 -183.4140625 425.53515625 C-184.19539551 425.61080811 -184.97672852 425.68645996 -185.78173828 425.7644043 C-187.72459994 425.97075049 -189.66036169 426.24183529 -191.59375 426.5234375 C-228.25619911 431.65281685 -268.0376595 426.81209418 -303 415 C-303.66499512 414.78408203 -304.32999023 414.56816406 -305.01513672 414.34570312 C-320.55615493 409.29825546 -335.53058552 402.5774039 -350 395 C-347.07285262 393.35789078 -344.71074045 392.68017604 -341.37890625 392.359375 C-340.45907959 392.26188965 -339.53925293 392.1644043 -338.59155273 392.06396484 C-337.59196533 391.96035645 -336.59237793 391.85674805 -335.5625 391.75 C-295.80755416 387.125711 -255.21646045 375.81103907 -219.78466797 356.9296875 C-217.94865201 355.97325128 -216.09305455 355.07466055 -214.22265625 354.1875 C-170.78304986 333.47233325 -128.97116467 299.83794917 -98 263 C-96.71996094 261.55367188 -96.71996094 261.55367188 -95.4140625 260.078125 C-31.15315049 187.20092356 -7.76758422 97.39625466 0 0 Z " fill="#963F56" transform="translate(734,219)"/>
<path d="M0 0 C1.49632965 0.00090637 1.49632965 0.00090637 3.02288818 0.00183105 C85.15136858 0.13673491 196.42916628 22.62826127 257.25 83.1875 C263.32785468 91.06725983 264.16661769 98.33649377 263.25 108.1875 C260.69153184 116.80368648 255.51635704 121.86039616 247.8125 126.0625 C243.71192408 127.40260994 239.53161298 127.53529659 235.25 127.625 C234.25335327 127.65859619 234.25335327 127.65859619 233.23657227 127.69287109 C224.48806475 127.65201534 217.99899484 122.49234906 211.0625 117.6875 C169.74290762 89.73866477 122.99308478 71.96670211 74.25 62.1875 C73.41082031 62.01879395 72.57164062 61.85008789 71.70703125 61.67626953 C63.92775253 60.14253652 56.12613555 58.97276001 48.25 58.0625 C47.59894287 57.98676758 46.94788574 57.91103516 46.27709961 57.83300781 C1.07271748 53.02020837 -46.13676182 55.52303929 -89.78173828 68.71435547 C-97.98774349 71.10901159 -106.01088482 71.05705759 -113.75 67.1875 C-120.4695624 62.6839635 -124.19498717 57.3708761 -126.5 49.6875 C-127.46113983 40.07610174 -125.8041213 32.69388034 -119.75 24.9375 C-112.35000121 17.29272015 -101.67924252 14.18030376 -91.625 11.625 C-89.95751709 11.18957886 -89.95751709 11.18957886 -88.25634766 10.74536133 C-71.04476864 6.35721884 -53.45775359 2.79729578 -35.75 1.1875 C-34.82606445 1.10137451 -33.90212891 1.01524902 -32.95019531 0.92651367 C-21.9720294 0.01275142 -11.0097811 -0.01230831 0 0 Z " fill="#1F2836" transform="translate(430.75,240.8125)"/>
<path d="M0 0 C0.56783203 0.42055664 1.13566406 0.84111328 1.72070312 1.27441406 C8.7528662 6.53358341 14.18018216 11.54054647 17 20 C17.53735393 26.34077639 16.71803907 30.7535542 13 36 C9.02421105 40.16950489 4.92210861 43.62837976 -0.91796875 44.37109375 C-11.41073678 44.58420851 -16.29912724 41.6850491 -24.59350586 35.68164062 C-25.16077393 35.27107422 -25.72804199 34.86050781 -26.3125 34.4375 C-26.9010376 34.01017578 -27.4895752 33.58285156 -28.09594727 33.14257812 C-74.73800196 -0.34465017 -131.7431979 -17.55576649 -188.9375 -17.3125 C-190.34888748 -17.30876877 -190.34888748 -17.30876877 -191.78878784 -17.30496216 C-215.19905875 -17.20968075 -237.41502986 -14.54436643 -260.23266602 -9.33764648 C-281.52426247 -4.55693906 -281.52426247 -4.55693906 -290.38671875 -9.8046875 C-295.82916694 -13.83710674 -298.50536269 -19.72302784 -299.5 -26.3125 C-298.59632102 -32.9771325 -295.81863659 -38.91265066 -290.625 -43.3125 C-284.6707872 -47.24515261 -277.81085769 -49.11410113 -271 -51 C-270.24589844 -51.21011719 -269.49179687 -51.42023438 -268.71484375 -51.63671875 C-178.61745786 -76.12777093 -74.56254859 -55.74587185 0 0 Z " fill="#1F2836" transform="translate(626,410)"/>
<path d="M0 0 C0.83015625 0.33902344 1.6603125 0.67804687 2.515625 1.02734375 C13.42942579 6.24295263 18.81967103 17.17640939 23 28 C24.75997966 33.26767431 25.43553628 38.12379206 25.6875 43.625 C25.72439941 44.41624268 25.76129883 45.20748535 25.79931641 46.02270508 C26.4926734 63.57885983 23.70045771 78.39063844 12 92 C11.42121094 92.67804688 10.84242188 93.35609375 10.24609375 94.0546875 C2.11658708 102.84436292 -9.58317259 107.36913411 -21.390625 108.16015625 C-33.69725383 108.56451691 -41.33637144 105.39817713 -52 99 C-52.33 115.17 -52.66 131.34 -53 148 C-61.91 148 -70.82 148 -80 148 C-80.9343489 145.19695329 -81.12558171 143.51271898 -81.12698364 140.61607361 C-81.12980347 139.7186998 -81.13262329 138.82132599 -81.13552856 137.89675903 C-81.13350433 136.91367767 -81.1314801 135.93059631 -81.12939453 134.91772461 C-81.13114685 133.87950058 -81.13289917 132.84127655 -81.13470459 131.77159119 C-81.13912678 128.31515864 -81.13617723 124.85877689 -81.1328125 121.40234375 C-81.13348701 118.97701508 -81.13445826 116.55168647 -81.13571167 114.12635803 C-81.1371904 109.01416385 -81.13503426 103.90198708 -81.13037109 98.78979492 C-81.12476645 92.34075679 -81.12797826 85.89176078 -81.13382339 79.44272423 C-81.1543281 52.61334728 -81.09367988 25.81039356 -80 -1 C-76.55972633 -1.72342067 -73.43710327 -2.11924603 -69.91796875 -2.09765625 C-68.98662109 -2.09443359 -68.05527344 -2.09121094 -67.09570312 -2.08789062 C-66.13599609 -2.07951172 -65.17628906 -2.07113281 -64.1875 -2.0625 C-63.20845703 -2.05798828 -62.22941406 -2.05347656 -61.22070312 -2.04882812 C-58.81377569 -2.03708702 -56.40687987 -2.01915289 -54 -2 C-53.67 1.96 -53.34 5.92 -53 10 C-52.525625 9.29875 -52.05125 8.5975 -51.5625 7.875 C-38.39510418 -6.8981758 -17.28288122 -7.23302902 0 0 Z M-51.875 33.25 C-56.44937007 44.43179351 -56.65562924 60.90854232 -52.0703125 72.23828125 C-49.29045743 76.81388211 -45.76616752 79.37639551 -40.76953125 81.140625 C-36.77348178 82.05164146 -33.0123723 82.33188569 -28.9375 82.3125 C-28.25623047 82.32861328 -27.57496094 82.34472656 -26.87304688 82.36132812 C-19.82495231 82.36809863 -14.71784725 79.45493734 -9.609375 74.84375 C-3.53957326 67.88999655 -3.27837157 58.80350081 -3 50 C-2.9175 48.80375 -2.835 47.6075 -2.75 46.375 C-3.29580265 39.00666419 -4.85941976 31.85678911 -10.1484375 26.4375 C-24.15655031 15.56200314 -41.38068462 20.65682154 -51.875 33.25 Z " fill="#FDFDFD" transform="translate(392,730)"/>
<path d="M0 0 C3.13542416 2.99290488 5.34948554 6.02422831 7.75 9.625 C6.18227546 13.96954384 2.79506099 16.33133905 -0.6875 19.125 C-5.98539626 23.37053866 -5.98539626 23.37053866 -10.25 28.625 C-12.97291197 27.55528458 -14.16759454 26.74226931 -15.875 24.3125 C-19.89086494 19.76823177 -25.55726973 17.52257676 -31.25 15.625 C-34.03445155 15.47619067 -36.77742385 15.39393 -39.5625 15.375 C-40.30951172 15.354375 -41.05652344 15.33375 -41.82617188 15.3125 C-47.85737857 15.27013858 -51.95800046 16.58078419 -56.5625 20.6875 C-58.91840948 24.78852762 -59.65563026 28.90493883 -59.25 33.625 C-57.27754393 38.19350649 -55.02896848 39.63318128 -50.5 41.5 C-49.90654785 41.74484131 -49.3130957 41.98968262 -48.70166016 42.24194336 C-41.81910039 44.97318593 -34.69452984 46.98277199 -27.60083008 49.08276367 C-18.31587927 51.8481829 -9.03873404 54.64759946 -1.25 60.625 C-0.40888672 61.23408203 -0.40888672 61.23408203 0.44921875 61.85546875 C8.29409851 67.93057086 13.02962211 76.92319683 14.75 86.625 C16.07515106 98.16853811 13.31353587 108.21192232 6.375 117.5625 C-4.06720528 129.84217488 -17.37535659 135.75056457 -33.25 137.625 C-52.60733849 138.78142986 -70.70458603 136.14965291 -85.92578125 123.19921875 C-87.3125 121.875 -87.3125 121.875 -89.25 119.625 C-89.25 118.965 -89.25 118.305 -89.25 117.625 C-89.91 117.625 -90.57 117.625 -91.25 117.625 C-93.25 114.625 -93.25 114.625 -93.125 112.75 C-90.91532333 107.38364237 -86.46272996 103.93512517 -82.140625 100.27734375 C-80.10786627 98.56716891 -80.10786627 98.56716891 -78 96.125 C-77.4225 95.63 -76.845 95.135 -76.25 94.625 C-73.78813385 94.88206233 -72.59856103 95.25024652 -70.8984375 97.078125 C-70.47820312 97.67109375 -70.05796875 98.2640625 -69.625 98.875 C-63.89746859 105.84826949 -55.96985873 108.17299206 -47.27734375 109.34765625 C-36.36936251 110.34696808 -29.43916985 109.25810014 -20.203125 103.2578125 C-17.35086541 100.87332348 -16.40873616 98.89282776 -15.94921875 95.22265625 C-15.94535156 94.38605469 -15.94148438 93.54945313 -15.9375 92.6875 C-15.91236328 91.43646484 -15.91236328 91.43646484 -15.88671875 90.16015625 C-16.34776822 86.942725 -17.32200319 85.24604249 -19.25 82.625 C-21.91274456 81.07846974 -21.91274456 81.07846974 -25.0625 80.0546875 C-26.22523438 79.64186523 -27.38796875 79.22904297 -28.5859375 78.80371094 C-34.4249664 76.92532398 -40.32370436 75.32638895 -46.25 73.75 C-59.56857356 70.06801686 -75.7247811 65.46213813 -83.25 52.625 C-83.25 51.635 -83.25 50.645 -83.25 49.625 C-83.91 49.625 -84.57 49.625 -85.25 49.625 C-89.82732995 39.47526838 -91.15410418 27.69840173 -88.56640625 16.7265625 C-87.6301942 14.51228503 -86.58825856 12.6199196 -85.25 10.625 C-84.59644531 9.6040625 -84.59644531 9.6040625 -83.9296875 8.5625 C-76.78283287 -1.74771652 -66.58110426 -8.77897805 -54.25 -11.375 C-35.48752903 -14.48028701 -15.31673582 -11.82684664 0 0 Z " fill="#FCFCFB" transform="translate(284.25,700.375)"/>
<path d="M0 0 C0.99445129 0.00182281 1.98890259 0.00364563 3.01348877 0.00552368 C17.87847004 0.05139864 32.36083981 0.50885272 47 3.3125 C47.95374512 3.48942383 48.90749023 3.66634766 49.89013672 3.84863281 C86.2668072 10.74858112 131.38897624 24.95743798 157 53.3125 C159.77794952 57.71829254 159.63937609 62.2614289 159 67.3125 C156.66907123 72.15365976 153.85901474 75.01551121 149 77.3125 C140.63454255 78.52028783 135.34222977 76.5658616 128.5 71.9375 C126.74719739 70.8256255 124.99192926 69.71762943 123.234375 68.61328125 C122.35845703 68.05592285 121.48253906 67.49856445 120.58007812 66.92431641 C88.99505333 47.19264214 50.43467532 36.37457119 13.21875 36.07421875 C12.21488754 36.06451553 11.21102509 36.05481232 10.17674255 36.04481506 C6.95112061 36.02001372 3.72570759 36.00730781 0.5 36 C-0.59859344 35.99738159 -1.69718689 35.99476318 -2.82907104 35.99206543 C-22.44331244 35.98704831 -40.74447659 37.5124675 -59.75 42.5625 C-67.41859882 44.58480982 -76.08442015 46.62133296 -83.578125 43.1015625 C-87.05937391 40.63463432 -89.44767419 38.34115507 -91 34.3125 C-91.67416884 29.19352032 -91.79866642 24.04055786 -89.375 19.375 C-85.06270223 13.81440551 -79.84726274 11.61046026 -73.1875 9.875 C-72.03918701 9.56695435 -72.03918701 9.56695435 -70.86767578 9.25268555 C-64.08487738 7.48835447 -57.24147188 6.02313621 -50.375 4.625 C-49.38781982 4.42269775 -48.40063965 4.22039551 -47.38354492 4.01196289 C-31.49606554 0.89215934 -16.15118955 -0.06136087 0 0 Z " fill="#1F2836" transform="translate(432,442.6875)"/>
<path d="M0 0 C1.74506836 0.07250977 1.74506836 0.07250977 3.52539062 0.14648438 C5.34780273 0.2305957 5.34780273 0.2305957 7.20703125 0.31640625 C8.43357422 0.36861328 9.66011719 0.42082031 10.92382812 0.47460938 C13.95598143 0.60439026 16.98781419 0.73936056 20.01953125 0.87890625 C25.47447341 12.80611097 30.13931516 24.96568244 34.68066406 37.265625 C37.02007849 43.57914315 39.39087344 49.88089994 41.75796509 56.18408203 C43.07674122 59.69652064 44.39379052 63.20960647 45.7109375 66.72265625 C46.37911499 68.50446289 46.37911499 68.50446289 47.06079102 70.32226562 C47.37717529 71.16595703 47.69355957 72.00964844 48.01953125 72.87890625 C48.12910156 72.32203125 48.23867188 71.76515625 48.3515625 71.19140625 C49.30985268 66.57914783 50.5083031 62.2622662 52.23388672 57.88085938 C53.03578984 55.83747665 53.77165054 53.78042285 54.4921875 51.70703125 C54.74701904 50.97387695 55.00185059 50.24072266 55.2644043 49.48535156 C55.53422119 48.70772461 55.80403809 47.93009766 56.08203125 47.12890625 C57.39234413 43.37814014 58.70598705 39.62854178 60.01953125 35.87890625 C60.42719727 34.71359375 60.83486328 33.54828125 61.25488281 32.34765625 C62.56660505 28.60605454 63.88610172 24.86726625 65.20703125 21.12890625 C65.62283447 19.93942383 66.0386377 18.74994141 66.46704102 17.52441406 C68.63667831 11.40481296 70.95236225 5.60428838 74.01953125 -0.12109375 C78.10284964 -0.15013267 82.18614145 -0.16790564 86.26953125 -0.18359375 C88.00783203 -0.19616211 88.00783203 -0.19616211 89.78125 -0.20898438 C90.89628906 -0.21220703 92.01132812 -0.21542969 93.16015625 -0.21875 C94.69978027 -0.22660522 94.69978027 -0.22660522 96.27050781 -0.23461914 C98.69578781 -0.13446326 100.70650486 0.17967547 103.01953125 0.87890625 C101.11431354 9.60403775 98.31119628 17.60385423 94.83203125 25.81640625 C93.83534036 28.21405513 92.84056455 30.61250096 91.84765625 33.01171875 C91.36232422 34.18250977 90.87699219 35.35330078 90.37695312 36.55957031 C88.53080539 41.07399919 86.79281837 45.62430895 85.08203125 50.19140625 C81.87698776 58.71396522 78.53392812 67.17830102 75.14453125 75.62890625 C74.88913574 76.26574341 74.63374023 76.90258057 74.37060547 77.55871582 C72.8365741 81.38240771 71.30028306 85.20518892 69.76348877 89.027771 C68.12957914 93.09330919 66.49886162 97.1601247 64.86962891 101.22753906 C64.02300982 103.34071572 63.17506613 105.45336227 62.32568359 107.56542969 C60.66954386 111.69391554 59.0200094 115.81918411 57.5 120 C52.83301189 132.81569751 45.82886655 142.97823107 33.234375 149.08984375 C26.48608067 151.49399799 20.44270531 152.19625281 13.33203125 152.12890625 C12.50380859 152.13664063 11.67558594 152.144375 10.82226562 152.15234375 C10.01724609 152.14976562 9.21222656 152.1471875 8.3828125 152.14453125 C7.66391846 152.14227539 6.94502441 152.14001953 6.2043457 152.13769531 C4.01953125 151.87890625 4.01953125 151.87890625 -0.98046875 149.87890625 C-0.98046875 141.29890625 -0.98046875 132.71890625 -0.98046875 123.87890625 C8.58203125 124.12890625 8.58203125 124.12890625 11.55297852 124.23925781 C17.60668486 124.31536646 21.09518854 123.45499346 26.01953125 119.87890625 C30.18180618 114.51176226 31.39438337 110.64038984 31.01953125 103.87890625 C30.12616307 100.56057639 30.12616307 100.56057639 28.70703125 97.12890625 C28.44269287 96.45102051 28.17835449 95.77313477 27.90600586 95.07470703 C26.96026033 92.66921813 25.99248454 90.27351813 25.01953125 87.87890625 C24.64924805 86.96657227 24.27896484 86.05423828 23.89746094 85.11425781 C22.16696525 80.8592411 20.4315133 76.60629701 18.68896484 72.35620117 C13.81553627 60.44851481 9.10027125 48.47957559 4.390625 36.50634766 C3.76176571 34.90785913 3.13286028 33.30938875 2.50390625 31.7109375 C2.20077515 30.94048096 1.89764404 30.17002441 1.58532715 29.3762207 C-1.19796361 22.31038744 -4.02140468 15.26059979 -6.89916992 8.23266602 C-8.98046875 3.09540269 -8.98046875 3.09540269 -8.98046875 0.87890625 C-5.67694976 -0.22226675 -3.46659703 -0.15219206 0 0 Z " fill="#FDFDFC" transform="translate(426.98046875,728.12109375)"/>
<path d="M0 0 C1.25683594 0.04833984 2.51367188 0.09667969 3.80859375 0.14648438 C5.12730469 0.20255859 6.44601562 0.25863281 7.8046875 0.31640625 C9.14451188 0.36963038 10.48435558 0.42237076 11.82421875 0.47460938 C15.10959637 0.60460633 18.39469428 0.73958311 21.6796875 0.87890625 C25.38805495 7.91331531 28.3958091 15.03728238 31.1171875 22.50390625 C31.90487305 24.6367464 32.69263351 26.76955889 33.48046875 28.90234375 C34.04628662 30.44293457 34.04628662 30.44293457 34.62353516 32.01464844 C35.76189321 35.10184602 36.92436536 38.17916208 38.09326172 41.25488281 C41.00483209 48.92448274 43.73039478 56.65343654 46.40869141 64.40722656 C46.69019043 65.22030273 46.97168945 66.03337891 47.26171875 66.87109375 C47.51155518 67.5966748 47.7613916 68.32225586 48.01879883 69.06982422 C48.6640101 70.94184318 48.6640101 70.94184318 49.6796875 72.87890625 C49.85395264 72.30076172 50.02821777 71.72261719 50.20776367 71.12695312 C54.53612467 56.81421135 59.02374449 42.55478799 63.62124634 28.32641602 C64.20002082 26.53381524 64.77715997 24.74068561 65.35263062 22.94702148 C66.17159897 20.39666279 66.99701942 17.84848043 67.82421875 15.30078125 C68.06774078 14.53920715 68.31126282 13.77763306 68.56216431 12.99298096 C68.79664276 12.2756781 69.03112122 11.55837524 69.27270508 10.81933594 C69.47285721 10.20048523 69.67300934 9.58163452 69.87922668 8.94403076 C70.95329953 6.17300922 72.35061317 3.53705491 73.6796875 0.87890625 C83.2496875 0.87890625 92.8196875 0.87890625 102.6796875 0.87890625 C101.55456609 9.87987752 101.55456609 9.87987752 100.19604492 13.53369141 C99.74303261 14.7706929 99.74303261 14.7706929 99.28086853 16.03268433 C98.95228348 16.90232819 98.62369843 17.77197205 98.28515625 18.66796875 C97.94186783 19.59618439 97.59857941 20.52440002 97.24488831 21.48074341 C96.12799119 24.49190468 94.99811582 27.49798961 93.8671875 30.50390625 C93.08659712 32.59656149 92.30632596 34.68933583 91.52636719 36.78222656 C86.84904469 49.29441933 82.04285516 61.74632867 77.00976562 74.11962891 C74.35899642 80.64172439 71.78447313 87.18223808 69.30078125 93.76953125 C68.87054153 94.90814606 68.87054153 94.90814606 68.43161011 96.06976318 C67.04638454 99.73919805 65.66948256 103.41142417 64.30566406 107.08886719 C58.14759164 123.54438757 51.83251464 139.54536503 35.18359375 147.765625 C26.96727949 151.41874445 19.11749229 152.03364477 10.2421875 151.94140625 C6.00375 151.91046875 6.00375 151.91046875 1.6796875 151.87890625 C1.6796875 141.97890625 1.6796875 132.07890625 1.6796875 121.87890625 C2.0096875 122.53890625 2.3396875 123.19890625 2.6796875 123.87890625 C5.70150164 123.98758288 8.71935077 124.06653379 11.7421875 124.12890625 C12.58974609 124.16242188 13.43730469 124.1959375 14.31054688 124.23046875 C20.32736016 124.32339251 23.7938852 123.4614082 28.6796875 119.87890625 C30.29134128 118.08453754 30.29134128 118.08453754 31.1171875 116.06640625 C31.42527344 115.44121094 31.73335937 114.81601562 32.05078125 114.171875 C33.6651199 108.28605646 32.44096605 103.26537344 30.4921875 97.62890625 C30.26660156 96.97486816 30.04101562 96.32083008 29.80859375 95.64697266 C28.13247298 90.89214396 26.16482975 86.32260331 23.99682617 81.77001953 C22.67353185 78.86539463 21.50781123 75.94081327 20.375 72.95703125 C19.72096191 71.24169189 19.72096191 71.24169189 19.05371094 69.49169922 C18.37356934 67.7033667 18.37356934 67.7033667 17.6796875 65.87890625 C9.32713323 44.09160364 0.957296 22.29345178 -8.3203125 0.87890625 C-5.47357495 -0.54446252 -3.17415903 -0.12868212 0 0 Z " fill="#FAFBFA" transform="translate(741.3203125,728.12109375)"/>
<path d="M0 0 C1.00611328 -0.01224609 2.01222656 -0.02449219 3.04882812 -0.03710938 C4.01369141 -0.03904297 4.97855469 -0.04097656 5.97265625 -0.04296875 C6.8531665 -0.04707764 7.73367676 -0.05118652 8.64086914 -0.05541992 C10.9375 0.1875 10.9375 0.1875 13.9375 2.1875 C14.27807617 4.52587891 14.27807617 4.52587891 14.23046875 7.4140625 C14.22080078 8.4453125 14.21113281 9.4765625 14.20117188 10.5390625 C14.17603516 11.61929688 14.15089844 12.69953125 14.125 13.8125 C14.10469727 15.44445312 14.10469727 15.44445312 14.08398438 17.109375 C14.04854754 19.80257409 13.99914331 22.49479374 13.9375 25.1875 C12.69613281 25.14109375 11.45476562 25.0946875 10.17578125 25.046875 C8.53387829 25.00934579 6.89194923 24.97294686 5.25 24.9375 C4.43337891 24.90398438 3.61675781 24.87046875 2.77539062 24.8359375 C-1.16166455 24.77217952 -3.53092574 24.90510117 -7.0625 26.78125 C-9.60722859 29.84287658 -9.9424229 32.00498093 -10.375 35.9375 C-10.51550781 37.10796875 -10.65601563 38.2784375 -10.80078125 39.484375 C-10.88714844 40.37640625 -10.97351563 41.2684375 -11.0625 42.1875 C-10.3104126 42.15197021 -9.5583252 42.11644043 -8.78344727 42.07983398 C-5.39752147 41.92286707 -2.01129289 41.77382785 1.375 41.625 C2.55900391 41.56892578 3.74300781 41.51285156 4.96289062 41.45507812 C6.08759766 41.40673828 7.21230469 41.35839844 8.37109375 41.30859375 C9.41322021 41.2614624 10.45534668 41.21433105 11.52905273 41.16577148 C13.9375 41.1875 13.9375 41.1875 14.9375 42.1875 C15.2151444 45.49188909 15.16924988 48.81032134 15.1875 52.125 C15.208125 53.05763672 15.22875 53.99027344 15.25 54.95117188 C15.25773438 56.28825195 15.25773438 56.28825195 15.265625 57.65234375 C15.2749707 58.473396 15.28431641 59.29444824 15.29394531 60.14038086 C15.11750488 61.15370483 15.11750488 61.15370483 14.9375 62.1875 C11.08994768 64.75253488 9.30170187 64.22338583 4.75 63.8125 C-0.54226527 63.37047087 -5.7510718 63.07910351 -11.0625 63.1875 C-10.5675 64.6725 -10.5675 64.6725 -10.0625 66.1875 C-9.9664403 68.75280889 -9.92604729 71.2906781 -9.93310547 73.85595703 C-9.93135315 74.63507446 -9.92960083 75.41419189 -9.92779541 76.21691895 C-9.9233927 78.79307276 -9.92630876 81.36915799 -9.9296875 83.9453125 C-9.92901414 85.73224908 -9.92804385 87.51918556 -9.92678833 89.30612183 C-9.92531362 93.0502815 -9.92745918 96.79441732 -9.93212891 100.53857422 C-9.9378343 105.34863234 -9.93454064 110.15863478 -9.92855644 114.96869087 C-9.92495176 118.65742415 -9.92608884 122.34614411 -9.92868423 126.03487778 C-9.92935334 127.80918255 -9.92852567 129.58348852 -9.92620468 131.3577919 C-9.92367879 133.83117147 -9.92751745 136.30445933 -9.93310547 138.77783203 C-9.93108124 139.5175827 -9.92905701 140.25733337 -9.92697144 141.01950073 C-9.94823561 146.07323561 -9.94823561 146.07323561 -11.0625 147.1875 C-20.3025 147.1875 -29.5425 147.1875 -39.0625 147.1875 C-39.0625 119.4675 -39.0625 91.7475 -39.0625 63.1875 C-44.3425 62.8575 -49.6225 62.5275 -55.0625 62.1875 C-55.0625 55.2575 -55.0625 48.3275 -55.0625 41.1875 C-49.7825 41.5175 -44.5025 41.8475 -39.0625 42.1875 C-39.124375 40.021875 -39.124375 40.021875 -39.1875 37.8125 C-39.14491157 27.73323761 -37.08326368 17.92081747 -30.2734375 10.14453125 C-21.28136166 1.74356797 -11.86363427 0.00762935 0 0 Z " fill="#FDFDFC" transform="translate(716.0625,686.8125)"/>
<path d="M0 0 C1.084021 0.00523682 2.16804199 0.01047363 3.28491211 0.01586914 C4.45473633 0.0190918 5.62456055 0.02231445 6.82983398 0.02563477 C8.0615332 0.03401367 9.29323242 0.04239258 10.56225586 0.05102539 C12.41560547 0.05779297 12.41560547 0.05779297 14.30639648 0.06469727 C17.37089703 0.07652931 20.43530307 0.09301366 23.49975586 0.11352539 C23.66956016 1.9908484 23.83545085 3.86852559 23.99975586 5.74633789 C24.09256836 6.79192871 24.18538086 7.83751953 24.28100586 8.91479492 C24.5469459 12.80357444 24.53252846 16.64894519 24.43725586 20.54321289 C24.45395315 23.70433789 24.45395315 23.70433789 25.49975586 29.11352539 C33.41975586 29.11352539 41.33975586 29.11352539 49.49975586 29.11352539 C49.49975586 36.04352539 49.49975586 42.97352539 49.49975586 50.11352539 C41.24975586 50.11352539 32.99975586 50.11352539 24.49975586 50.11352539 C24.4016184 62.28257016 24.52850011 74.43821791 24.81814575 86.6036377 C24.8558051 88.23173947 24.89022269 89.85991954 24.9213562 91.48815918 C24.96681667 93.81022217 25.02470297 96.13166841 25.08569336 98.45336914 C25.0972496 99.15165329 25.10880585 99.84993744 25.12071228 100.56938171 C25.23898139 104.47765869 25.66308477 107.63443867 27.49975586 111.11352539 C32.52694901 113.66579268 37.67940046 113.35989049 42.93725586 111.73852539 C43.7403418 111.44204102 44.54342773 111.14555664 45.37084961 110.84008789 C47.49975586 110.11352539 47.49975586 110.11352539 50.49975586 110.11352539 C50.49975586 118.03352539 50.49975586 125.95352539 50.49975586 134.11352539 C37.9316724 139.14075878 24.27026377 139.81011714 11.49975586 135.11352539 C4.42704827 131.20856143 0.24057532 126.06687381 -2.07373047 118.30761719 C-3.88709996 111.44454727 -3.97662477 104.76064616 -4.01196289 97.69555664 C-4.02885205 96.34362708 -4.04700781 94.99171282 -4.06636047 93.63981628 C-4.11340806 90.12023708 -4.14350727 86.60071987 -4.1697998 83.08093262 C-4.19983683 79.47383376 -4.2462861 75.86694784 -4.29125977 72.26000977 C-4.37677633 65.21129107 -4.44282678 58.16253726 -4.50024414 51.11352539 C-11.43024414 50.61852539 -11.43024414 50.61852539 -18.50024414 50.11352539 C-19.38305639 45.69946417 -19.61767664 41.75152994 -19.56274414 37.30102539 C-19.54211914 34.92915039 -19.52149414 32.55727539 -19.50024414 30.11352539 C-14.55024414 29.78352539 -9.60024414 29.45352539 -4.50024414 29.11352539 C-4.4396582 27.10387695 -4.37907227 25.09422852 -4.31665039 23.02368164 C-4.25408965 21.0842987 -4.19149557 19.14491666 -4.12792969 17.20556641 C-4.08453191 15.85438392 -4.04286044 14.50314486 -4.00292969 13.15185547 C-3.94534463 11.21315838 -3.88110117 9.27466263 -3.81665039 7.33618164 C-3.77999268 6.16837158 -3.74333496 5.00056152 -3.70556641 3.79736328 C-3.42696003 0.15560359 -3.42696003 0.15560359 0 0 Z " fill="#FDFCFB" transform="translate(556.500244140625,698.886474609375)"/>
<path d="M0 0 C9.57 0 19.14 0 29 0 C29.15298194 13.67297781 29.30174113 27.34598336 29.4429636 41.01908779 C29.50870236 47.36733133 29.57632797 53.71554333 29.64819336 60.0637207 C29.71741561 66.18444406 29.78177612 72.30520061 29.84269524 78.42601204 C29.866862 80.76692642 29.89281215 83.10782306 29.92053413 85.44869804 C29.9589181 88.71503801 29.99108987 91.98138227 30.02172852 95.24780273 C30.03467453 96.226035 30.04762054 97.20426727 30.06095886 98.21214294 C30.06799835 99.09700378 30.07503784 99.98186462 30.08229065 100.89353943 C30.09058679 101.66692374 30.09888292 102.44030806 30.10743046 103.23712826 C30 105 30 105 29 106 C19.43 106 9.86 106 0 106 C0 71.02 0 36.04 0 0 Z " fill="#FEFEFD" transform="translate(620,728)"/>
<path d="M0 0 C0.928125 0.495 1.85625 0.99 2.8125 1.5 C2.8125 2.16 2.8125 2.82 2.8125 3.5 C3.4725 3.5 4.1325 3.5 4.8125 3.5 C8.51238677 9.04983016 8.708998 14.9696273 7.8125 21.5 C6.4140625 24.37109375 6.4140625 24.37109375 4.8125 26.5 C4.1525 26.5 3.4925 26.5 2.8125 26.5 C2.8125 27.16 2.8125 27.82 2.8125 28.5 C-3.39287527 31.88475015 -9.18495769 32.3646287 -16.1875 31.5 C-20.5282774 30.01238736 -23.91419408 27.54143275 -26.1875 23.5 C-27.842611 18.08009427 -28.17782703 11.97581759 -26.0625 6.6875 C-19.22979518 -1.28398896 -10.04729792 -4.35588376 0 0 Z " fill="#FAF7F6" transform="translate(646.1875,687.5)"/>
<path d="M0 0 C0.96898727 -0.00095673 1.93797455 -0.00191345 2.93632507 -0.00289917 C4.98123235 -0.00357785 7.02614182 -0.00174534 9.07104492 0.00244141 C12.17827274 0.00777654 15.28535487 0.00249481 18.39257812 -0.00390625 C20.38671907 -0.00324507 22.38085992 -0.00196309 24.375 0 C25.29404617 -0.00202423 26.21309235 -0.00404846 27.1599884 -0.00613403 C32.81140461 0.01408894 38.27991566 0.41544375 43.88671875 1.1328125 C43.88671875 1.4628125 43.88671875 1.7928125 43.88671875 2.1328125 C41.91094849 2.12495728 41.91094849 2.12495728 39.89526367 2.11694336 C35.01441119 2.09886101 30.13356168 2.08736861 25.25268555 2.07788086 C23.13907371 2.07284806 21.02546537 2.0660213 18.91186523 2.05737305 C15.87613057 2.04526146 12.84044189 2.03957369 9.8046875 2.03515625 C8.85772507 2.02999496 7.91076263 2.02483368 6.93510437 2.01951599 C6.05441788 2.01944046 5.17373138 2.01936493 4.26635742 2.01928711 C3.49136398 2.0170665 2.71637054 2.01484589 1.91789246 2.01255798 C-0.31768713 2.05672173 -0.31768713 2.05672173 -3.11328125 3.1328125 C-5.34555025 3.04663524 -7.57566611 2.89359009 -9.80078125 2.6953125 C-10.98027344 2.59347656 -12.15976562 2.49164063 -13.375 2.38671875 C-14.73044922 2.26103516 -14.73044922 2.26103516 -16.11328125 2.1328125 C-16.11328125 1.8028125 -16.11328125 1.4728125 -16.11328125 1.1328125 C-10.7143993 0.01173319 -5.48579559 -0.01200334 0 0 Z " fill="#03030C" transform="translate(420.11328125,442.8671875)"/>
<path d="M0 0 C0 0.33 0 0.66 0 1 C4.62 1.66 9.24 2.32 14 3 C14 3.33 14 3.66 14 4 C12.88584717 3.93433838 11.77169434 3.86867676 10.6237793 3.80102539 C-1.97698661 3.08405448 -14.57010415 2.70609518 -27.1875 2.4375 C-29.12435482 2.39414121 -31.06120384 2.35052261 -32.99804688 2.30664062 C-37.66530353 2.20144772 -42.33262323 2.0997152 -47 2 C-47 1.67 -47 1.34 -47 1 C-41.27085649 0.85663796 -35.54168987 0.71425104 -29.8125 0.57275391 C-27.86490225 0.52451719 -25.91731099 0.47601754 -23.96972656 0.42724609 C-21.16473036 0.35704956 -18.3597119 0.28780948 -15.5546875 0.21875 C-14.68883026 0.19687622 -13.82297302 0.17500244 -12.93087769 0.15246582 C-8.61923975 0.04724583 -4.31336351 -0.02454261 0 0 Z " fill="#FE878B" transform="translate(537,103)"/>
<path d="M0 0 C0.33 0 0.66 0 1 0 C1 12.54 1 25.08 1 38 C0.67 38 0.34 38 0 38 C-0.06058594 37.25234375 -0.12117187 36.5046875 -0.18359375 35.734375 C-0.26738281 34.74953125 -0.35117188 33.7646875 -0.4375 32.75 C-0.51871094 31.77546875 -0.59992188 30.8009375 -0.68359375 29.796875 C-0.95168737 27.42705979 -1.42191666 25.30277828 -2 23 C-2.15732927 18.12279268 -1.88258306 13.80517443 -1 9 C-0.63467351 6.00333541 -0.31359254 3.00248174 0 0 Z " fill="#F7767C" transform="translate(242,354)"/>
<path d="M0 0 C9.74824187 0.79903622 19.353358 2.42524017 29 4 C29 4.33 29 4.66 29 5 C25.65711511 4.76444439 22.31463397 4.52552724 18.97265625 4.27734375 C16.39882118 4.09765615 13.82311329 3.94244154 11.24609375 3.81640625 C10.09238281 3.75324219 8.93867188 3.69007813 7.75 3.625 C6.69296875 3.57601562 5.6359375 3.52703125 4.546875 3.4765625 C3.70640625 3.31929687 2.8659375 3.16203125 2 3 C1.34 2.01 0.68 1.02 0 0 Z " fill="#A5495F" transform="translate(455,638)"/>
<path d="M0 0 C2.96680942 2.96680942 3.53759451 6.47016225 4.6875 10.4375 C4.92533203 11.21416016 5.16316406 11.99082031 5.40820312 12.79101562 C5.62798828 13.53931641 5.84777344 14.28761719 6.07421875 15.05859375 C6.27619873 15.74236084 6.47817871 16.42612793 6.6862793 17.13061523 C7 19 7 19 6 22 C5.34 22 4.68 22 4 22 C3.855625 20.80375 3.71125 19.6075 3.5625 18.375 C3.37598299 16.91654062 3.18849332 15.45820528 3 14 C2.855625 12.865625 2.71125 11.73125 2.5625 10.5625 C2.376875 9.716875 2.19125 8.87125 2 8 C1.34 7.67 0.68 7.34 0 7 C-1.26229508 2.52459016 -1.26229508 2.52459016 0 0 Z " fill="#F47379" transform="translate(252,448)"/>
<path d="M0 0 C2.04159095 -0.0272616 4.08328963 -0.04651345 6.125 -0.0625 C7.26195312 -0.07410156 8.39890625 -0.08570313 9.5703125 -0.09765625 C12.8129156 -0.005327 15.81932612 0.38610094 19 1 C19 1.33 19 1.66 19 2 C14.38 2.33 9.76 2.66 5 3 C5 2.34 5 1.68 5 1 C3.35 1 1.7 1 0 1 C0 0.67 0 0.34 0 0 Z " fill="#110F1C" transform="translate(467,243)"/>
<path d="M0 0 C3.3 0 6.6 0 10 0 C9.34 0.66 8.68 1.32 8 2 C10.475 3.98 10.475 3.98 13 6 C8.14036821 5.39254603 4.2594482 3.27241033 0 1 C0 0.67 0 0.34 0 0 Z " fill="#7E3248" transform="translate(384,613)"/>
<path d="M0 0 C0.66 0.66 1.32 1.32 2 2 C-1.54674003 3.18224668 -3.97522995 2.89329634 -7.6875 2.5625 C-8.86699219 2.46066406 -10.04648437 2.35882813 -11.26171875 2.25390625 C-12.61716797 2.12822266 -12.61716797 2.12822266 -14 2 C-14 1.67 -14 1.34 -14 1 C-9.2250791 0.04501582 -4.84860624 -0.24243031 0 0 Z " fill="#17111E" transform="translate(418,443)"/>
<path d="M0 0 C2.125 0.9375 2.125 0.9375 4 2 C4 2.66 4 3.32 4 4 C5.98 4.66 7.96 5.32 10 6 C6.35839192 7.21386936 5.66834531 6.6674695 2.3125 5.0625 C1.50425781 4.68222656 0.69601562 4.30195312 -0.13671875 3.91015625 C-0.75160156 3.60980469 -1.36648438 3.30945313 -2 3 C-2 2.34 -2 1.68 -2 1 C-1.34 0.67 -0.68 0.34 0 0 Z " fill="#88394E" transform="translate(400,618)"/>
<path d="M0 0 C1.65 0 3.3 0 5 0 C5 0.66 5 1.32 5 2 C5.9075 2.268125 6.815 2.53625 7.75 2.8125 C10.71471963 3.89576294 12.6169754 4.98359457 15 7 C11.14974121 6.39644592 8.13898841 5.23227397 4.6875 3.4375 C3.80449219 2.98246094 2.92148437 2.52742188 2.01171875 2.05859375 C1.34785156 1.70925781 0.68398438 1.35992187 0 1 C0 0.67 0 0.34 0 0 Z " fill="#120D19" transform="translate(542,411)"/>
<path d="M0 0 C2.97 0 5.94 0 9 0 C9 0.66 9 1.32 9 2 C9.99 2.33 10.98 2.66 12 3 C10.37419034 2.88601335 8.74932843 2.75844341 7.125 2.625 C6.22007812 2.55539062 5.31515625 2.48578125 4.3828125 2.4140625 C2 2 2 2 0 0 Z " fill="#7C3145" transform="translate(446,637)"/>
<path d="M0 0 C0.66 0 1.32 0 2 0 C2.33 2.31 2.66 4.62 3 7 C2.67 7 2.34 7 2 7 C1.67 8.65 1.34 10.3 1 12 C0.67 12 0.34 12 0 12 C0 8.04 0 4.08 0 0 Z " fill="#9F455B" transform="translate(779,392)"/>
<path d="M0 0 C2.64 0 5.28 0 8 0 C7.01 1.485 7.01 1.485 6 3 C2.375 3.1875 2.375 3.1875 -1 3 C-0.67 2.01 -0.34 1.02 0 0 Z " fill="#9E465B" transform="translate(533,643)"/>
<path d="M0 0 C0.33 0.99 0.66 1.98 1 3 C-1.31 4.98 -3.62 6.96 -6 9 C-4.25618453 5.51236907 -2.47193291 2.96631949 0 0 Z " fill="#833149" transform="translate(655,459)"/>
<path d="M0 0 C1.65 0 3.3 0 5 0 C2 2 2 2 0 2 C0 1.34 0 0.68 0 0 Z " fill="#B35E6F" transform="translate(479,646)"/>
<path d="M0 0 C0.33 0 0.66 0 1 0 C1 2.31 1 4.62 1 7 C0.67 7 0.34 7 0 7 C0 4.69 0 2.38 0 0 Z " fill="#F78186" transform="translate(240,390)"/>
<path d="M0 0 C0.33 0 0.66 0 1 0 C1 2.31 1 4.62 1 7 C0.67 7 0.34 7 0 7 C0 4.69 0 2.38 0 0 Z " fill="#F88186" transform="translate(240,382)"/>
<path d="M0 0 C0.33 0 0.66 0 1 0 C1 1.65 1 3.3 1 5 C0.34 3.68 -0.32 2.36 -1 1 C-0.67 0.67 -0.34 0.34 0 0 Z " fill="#F78187" transform="translate(241,403)"/>
<path d="M0 0 C0.99 1.485 0.99 1.485 2 3 C1.34 3 0.68 3 0 3 C0 2.01 0 1.02 0 0 Z " fill="#F37E85" transform="translate(249,447)"/>
<path d="M0 0 C0.33 0.66 0.66 1.32 1 2 C0.34 1.67 -0.32 1.34 -1 1 C-0.67 0.67 -0.34 0.34 0 0 Z " fill="#B15F6F" transform="translate(567,642)"/>
<path d="M0 0 C3 1 3 1 3 1 Z " fill="#AE5D6D" transform="translate(580,639)"/>
<path d="M0 0 C0.99 0.495 0.99 0.495 2 1 C1.01 1.495 1.01 1.495 0 2 C0 1.34 0 0.68 0 0 Z " fill="#AB5B6D" transform="translate(630,622)"/>
<path d="M0 0 C0.66 0.66 1.32 1.32 2 2 C1.34 2 0.68 2 0 2 C0 1.34 0 0.68 0 0 Z " fill="#F58287" transform="translate(304,550)"/>
<path d="M0 0 C0.66 0 1.32 0 2 0 C1.67 0.66 1.34 1.32 1 2 C0.67 1.34 0.34 0.68 0 0 Z " fill="#F77E85" transform="translate(259,477)"/>
<path d="" fill="#F68087" transform="translate(0,0)"/>
<path d="" fill="#9B4B5E" transform="translate(0,0)"/>
<path d="" fill="#9E4E60" transform="translate(0,0)"/>
<path d="" fill="#F88086" transform="translate(0,0)"/>
<path d="M0 0 C0.66 0 1.32 0 2 0 C1.67 0.66 1.34 1.32 1 2 C0.67 1.34 0.34 0.68 0 0 Z " fill="#F88185" transform="translate(289,213)"/>
<path d="M0 0 C0.66 0.66 1.32 1.32 2 2 C1.34 2 0.68 2 0 2 C0 1.34 0 0.68 0 0 Z " fill="#F17C81" transform="translate(702,177)"/>
<path d="M0 0 C3 1 3 1 3 1 Z " fill="#FA8285" transform="translate(375,136)"/>
<path d="M0 0 C3 1 3 1 3 1 Z " fill="#FB8386" transform="translate(428,113)"/>
<path d="M0 0 C3 1 3 1 3 1 Z " fill="#F88285" transform="translate(589,112)"/>
<path d="M0 0 C3 1 3 1 3 1 Z " fill="#FE8688" transform="translate(465,104)"/>
<path d="M0 0 C2 1 2 1 2 1 Z " fill="#FDFDFD" transform="translate(725,751)"/>
<path d="M0 0 C2 1 2 1 2 1 Z " fill="#B05C6C" transform="translate(533,647)"/>
<path d="M0 0 C2 1 2 1 2 1 Z " fill="#B25C6F" transform="translate(526,647)"/>
<path d="" fill="#B65F71" transform="translate(0,0)"/>
<path d="M0 0 C2 1 2 1 2 1 Z " fill="#B15E6E" transform="translate(584,638)"/>
<path d="M0 0 C2 1 2 1 2 1 Z " fill="#B15D6E" transform="translate(586,637)"/>
<path d="M0 0 C2 1 2 1 2 1 Z " fill="#DD7983" transform="translate(377,611)"/>
<path d="M0 0 C2 1 2 1 2 1 Z " fill="#EA7C84" transform="translate(368,606)"/>
<path d="" fill="#F17F86" transform="translate(0,0)"/>
<path d="" fill="#F38189" transform="translate(0,0)"/>
<path d="M0 0 C2 1 2 1 2 1 Z " fill="#F68187" transform="translate(292,535)"/>
<path d="" fill="#F38088" transform="translate(0,0)"/>
<path d="" fill="#F58286" transform="translate(0,0)"/>
<path d="M0 0 C2 1 2 1 2 1 Z " fill="#F57F85" transform="translate(256,471)"/>
<path d="" fill="#9D4D61" transform="translate(0,0)"/>
<path d="" fill="#F57F83" transform="translate(0,0)"/>
<path d="" fill="#F58184" transform="translate(0,0)"/>
<path d="" fill="#F87F89" transform="translate(0,0)"/>
<path d="" fill="#F57F87" transform="translate(0,0)"/>
<path d="" fill="#F78085" transform="translate(0,0)"/>
<path d="" fill="#F78387" transform="translate(0,0)"/>
<path d="" fill="#FA8287" transform="translate(0,0)"/>
<path d="M0 0 C2 1 2 1 2 1 Z " fill="#B65D6A" transform="translate(740,225)"/>
<path d="" fill="#F88487" transform="translate(0,0)"/>
<path d="M0 0 C2 1 2 1 2 1 Z " fill="#F68284" transform="translate(368,136)"/>
<path d="M0 0 C2 1 2 1 2 1 Z " fill="#FC8489" transform="translate(410,120)"/>
<path d="M0 0 C2 1 2 1 2 1 Z " fill="#FD8588" transform="translate(489,101)"/>
<path d="" fill="#8C8D8E" transform="translate(0,0)"/>
<path d="" fill="#A3A4A6" transform="translate(0,0)"/>
<path d="" fill="#E3E5E5" transform="translate(0,0)"/>
<path d="" fill="#F0F3F0" transform="translate(0,0)"/>
<path d="" fill="#FCFCFA" transform="translate(0,0)"/>
<path d="" fill="#FBFEFD" transform="translate(0,0)"/>
<path d="" fill="#EDEEED" transform="translate(0,0)"/>
<path d="" fill="#FAFBF9" transform="translate(0,0)"/>
<path d="" fill="#FEFDFE" transform="translate(0,0)"/>
<path d="" fill="#FEFFFE" transform="translate(0,0)"/>
<path d="" fill="#FFFEFD" transform="translate(0,0)"/>
<path d="" fill="#FFFEFE" transform="translate(0,0)"/>
<path d="" fill="#FDFDFD" transform="translate(0,0)"/>
<path d="" fill="#FFFEFF" transform="translate(0,0)"/>
<path d="" fill="#FCFCFD" transform="translate(0,0)"/>
<path d="" fill="#FEFCFD" transform="translate(0,0)"/>
<path d="" fill="#F0F0F1" transform="translate(0,0)"/>
<path d="" fill="#DADADA" transform="translate(0,0)"/>
<path d="" fill="#FFFEFE" transform="translate(0,0)"/>
<path d="" fill="#FCFBF9" transform="translate(0,0)"/>
<path d="" fill="#FCFBFD" transform="translate(0,0)"/>
<path d="" fill="#FBFBFB" transform="translate(0,0)"/>
<path d="" fill="#FBFDFA" transform="translate(0,0)"/>
<path d="" fill="#DCD9DB" transform="translate(0,0)"/>
<path d="" fill="#FFFDFE" transform="translate(0,0)"/>
<path d="" fill="#FCF9F8" transform="translate(0,0)"/>
<path d="" fill="#FDFCFA" transform="translate(0,0)"/>
<path d="" fill="#FBFAF7" transform="translate(0,0)"/>
<path d="" fill="#AF5C6D" transform="translate(0,0)"/>
<path d="" fill="#AF5C6C" transform="translate(0,0)"/>
<path d="" fill="#BA6070" transform="translate(0,0)"/>
<path d="" fill="#B05B6D" transform="translate(0,0)"/>
<path d="" fill="#B1596C" transform="translate(0,0)"/>
<path d="" fill="#B25E6F" transform="translate(0,0)"/>
<path d="" fill="#B46172" transform="translate(0,0)"/>
<path d="" fill="#B25C70" transform="translate(0,0)"/>
<path d="" fill="#B36173" transform="translate(0,0)"/>
<path d="" fill="#B26474" transform="translate(0,0)"/>
<path d="" fill="#B35C70" transform="translate(0,0)"/>
<path d="" fill="#B16473" transform="translate(0,0)"/>
<path d="" fill="#B35D70" transform="translate(0,0)"/>
<path d="" fill="#B46274" transform="translate(0,0)"/>
<path d="" fill="#B05F71" transform="translate(0,0)"/>
<path d="" fill="#B25F6D" transform="translate(0,0)"/>
<path d="" fill="#AF5D6B" transform="translate(0,0)"/>
<path d="" fill="#B26171" transform="translate(0,0)"/>
<path d="" fill="#B46472" transform="translate(0,0)"/>
<path d="" fill="#B26877" transform="translate(0,0)"/>
<path d="" fill="#B36473" transform="translate(0,0)"/>
<path d="" fill="#B86673" transform="translate(0,0)"/>
<path d="" fill="#B56173" transform="translate(0,0)"/>
<path d="" fill="#B1596A" transform="translate(0,0)"/>
<path d="" fill="#B46575" transform="translate(0,0)"/>
<path d="" fill="#B76574" transform="translate(0,0)"/>
<path d="" fill="#AE5B6B" transform="translate(0,0)"/>
<path d="" fill="#B46474" transform="translate(0,0)"/>
<path d="" fill="#AD566C" transform="translate(0,0)"/>
<path d="" fill="#B96374" transform="translate(0,0)"/>
<path d="" fill="#AB5A6C" transform="translate(0,0)"/>
<path d="" fill="#AF6272" transform="translate(0,0)"/>
<path d="" fill="#AB586B" transform="translate(0,0)"/>
<path d="" fill="#AE5D6E" transform="translate(0,0)"/>
<path d="" fill="#AD596A" transform="translate(0,0)"/>
<path d="" fill="#C66D7C" transform="translate(0,0)"/>
<path d="" fill="#C36975" transform="translate(0,0)"/>
<path d="" fill="#DB7782" transform="translate(0,0)"/>
<path d="" fill="#858583" transform="translate(0,0)"/>
<path d="" fill="#DA7380" transform="translate(0,0)"/>
<path d="" fill="#AA5768" transform="translate(0,0)"/>
<path d="" fill="#A45364" transform="translate(0,0)"/>
<path d="" fill="#E97F88" transform="translate(0,0)"/>
<path d="" fill="#ED7F87" transform="translate(0,0)"/>
<path d="" fill="#F0818A" transform="translate(0,0)"/>
<path d="" fill="#F3808B" transform="translate(0,0)"/>
<path d="" fill="#F2848A" transform="translate(0,0)"/>
<path d="" fill="#F18488" transform="translate(0,0)"/>
<path d="" fill="#A45366" transform="translate(0,0)"/>
<path d="" fill="#F4828A" transform="translate(0,0)"/>
<path d="" fill="#9B4B5E" transform="translate(0,0)"/>
<path d="" fill="#A25565" transform="translate(0,0)"/>
<path d="" fill="#F18189" transform="translate(0,0)"/>
<path d="" fill="#F4838B" transform="translate(0,0)"/>
<path d="" fill="#A35464" transform="translate(0,0)"/>
<path d="" fill="#F4818A" transform="translate(0,0)"/>
<path d="" fill="#A15461" transform="translate(0,0)"/>
<path d="" fill="#9E5465" transform="translate(0,0)"/>
<path d="" fill="#F48488" transform="translate(0,0)"/>
<path d="" fill="#F58189" transform="translate(0,0)"/>
<path d="" fill="#F48289" transform="translate(0,0)"/>
<path d="" fill="#9F5163" transform="translate(0,0)"/>
<path d="" fill="#EF8087" transform="translate(0,0)"/>
<path d="" fill="#F68287" transform="translate(0,0)"/>
<path d="" fill="#F78089" transform="translate(0,0)"/>
<path d="" fill="#9E5061" transform="translate(0,0)"/>
<path d="" fill="#F28188" transform="translate(0,0)"/>
<path d="" fill="#9D4D60" transform="translate(0,0)"/>
<path d="" fill="#F58189" transform="translate(0,0)"/>
<path d="" fill="#F48086" transform="translate(0,0)"/>
<path d="" fill="#F48086" transform="translate(0,0)"/>
<path d="" fill="#9F4D61" transform="translate(0,0)"/>
<path d="" fill="#F88088" transform="translate(0,0)"/>
<path d="" fill="#F67F89" transform="translate(0,0)"/>
<path d="" fill="#F88088" transform="translate(0,0)"/>
<path d="" fill="#9E4D61" transform="translate(0,0)"/>
<path d="" fill="#F57E88" transform="translate(0,0)"/>
<path d="" fill="#9C4A5D" transform="translate(0,0)"/>
<path d="" fill="#9F5061" transform="translate(0,0)"/>
<path d="" fill="#F5838A" transform="translate(0,0)"/>
<path d="" fill="#9D4D60" transform="translate(0,0)"/>
<path d="" fill="#9B495D" transform="translate(0,0)"/>
<path d="" fill="#787677" transform="translate(0,0)"/>
<path d="" fill="#F58286" transform="translate(0,0)"/>
<path d="" fill="#776A6A" transform="translate(0,0)"/>
<path d="" fill="#F68286" transform="translate(0,0)"/>
<path d="" fill="#9F5062" transform="translate(0,0)"/>
<path d="" fill="#A04F61" transform="translate(0,0)"/>
<path d="" fill="#F67F87" transform="translate(0,0)"/>
<path d="" fill="#9D4F60" transform="translate(0,0)"/>
<path d="" fill="#F67F84" transform="translate(0,0)"/>
<path d="" fill="#9D4B5E" transform="translate(0,0)"/>
<path d="" fill="#757678" transform="translate(0,0)"/>
<path d="" fill="#767675" transform="translate(0,0)"/>
<path d="" fill="#776D6F" transform="translate(0,0)"/>
<path d="" fill="#757575" transform="translate(0,0)"/>
<path d="" fill="#F78184" transform="translate(0,0)"/>
<path d="" fill="#A05062" transform="translate(0,0)"/>
<path d="" fill="#686363" transform="translate(0,0)"/>
<path d="" fill="#9C4D60" transform="translate(0,0)"/>
<path d="" fill="#6B5555" transform="translate(0,0)"/>
<path d="" fill="#F78188" transform="translate(0,0)"/>
<path d="" fill="#727272" transform="translate(0,0)"/>
<path d="" fill="#6C6C6B" transform="translate(0,0)"/>
<path d="" fill="#6D5257" transform="translate(0,0)"/>
<path d="" fill="#FA8289" transform="translate(0,0)"/>
<path d="" fill="#9F4D62" transform="translate(0,0)"/>
<path d="" fill="#F78189" transform="translate(0,0)"/>
<path d="" fill="#F67F85" transform="translate(0,0)"/>
<path d="" fill="#9F5062" transform="translate(0,0)"/>
<path d="" fill="#6D6C6C" transform="translate(0,0)"/>
<path d="" fill="#FB8286" transform="translate(0,0)"/>
<path d="" fill="#9F4E5D" transform="translate(0,0)"/>
<path d="" fill="#F78187" transform="translate(0,0)"/>
<path d="" fill="#9D4C5F" transform="translate(0,0)"/>
<path d="" fill="#F98287" transform="translate(0,0)"/>
<path d="" fill="#FA8186" transform="translate(0,0)"/>
<path d="" fill="#62595A" transform="translate(0,0)"/>
<path d="" fill="#9D4F61" transform="translate(0,0)"/>
<path d="" fill="#695152" transform="translate(0,0)"/>
<path d="" fill="#A04D60" transform="translate(0,0)"/>
<path d="" fill="#F68285" transform="translate(0,0)"/>
<path d="" fill="#A05060" transform="translate(0,0)"/>
<path d="" fill="#9F4E5F" transform="translate(0,0)"/>
<path d="" fill="#F78487" transform="translate(0,0)"/>
<path d="" fill="#A04F61" transform="translate(0,0)"/>
<path d="" fill="#FA8188" transform="translate(0,0)"/>
<path d="" fill="#A3505E" transform="translate(0,0)"/>
<path d="" fill="#A15060" transform="translate(0,0)"/>
<path d="" fill="#A25264" transform="translate(0,0)"/>
<path d="" fill="#6E6565" transform="translate(0,0)"/>
<path d="" fill="#A35064" transform="translate(0,0)"/>
<path d="" fill="#F78186" transform="translate(0,0)"/>
<path d="" fill="#F68186" transform="translate(0,0)"/>
<path d="" fill="#A95565" transform="translate(0,0)"/>
<path d="" fill="#A85668" transform="translate(0,0)"/>
<path d="" fill="#FA8187" transform="translate(0,0)"/>
<path d="" fill="#F58086" transform="translate(0,0)"/>
<path d="" fill="#FA8189" transform="translate(0,0)"/>
<path d="" fill="#B35C6B" transform="translate(0,0)"/>
<path d="" fill="#6B6063" transform="translate(0,0)"/>
<path d="" fill="#C36671" transform="translate(0,0)"/>
<path d="" fill="#CE6B75" transform="translate(0,0)"/>
<path d="" fill="#CD6A73" transform="translate(0,0)"/>
<path d="" fill="#F88388" transform="translate(0,0)"/>
<path d="" fill="#F98486" transform="translate(0,0)"/>
<path d="" fill="#FA8187" transform="translate(0,0)"/>
<path d="" fill="#E2747B" transform="translate(0,0)"/>
<path d="" fill="#DF757B" transform="translate(0,0)"/>
<path d="" fill="#EB777E" transform="translate(0,0)"/>
<path d="" fill="#E8787D" transform="translate(0,0)"/>
<path d="" fill="#E77D81" transform="translate(0,0)"/>
<path d="" fill="#F07981" transform="translate(0,0)"/>
<path d="" fill="#FA7F86" transform="translate(0,0)"/>
<path d="" fill="#F98186" transform="translate(0,0)"/>
<path d="" fill="#F27A83" transform="translate(0,0)"/>
<path d="" fill="#F88086" transform="translate(0,0)"/>
<path d="" fill="#F88185" transform="translate(0,0)"/>
<path d="" fill="#F98187" transform="translate(0,0)"/>
<path d="" fill="#F38081" transform="translate(0,0)"/>
<path d="" fill="#F77D81" transform="translate(0,0)"/>
<path d="" fill="#FB8286" transform="translate(0,0)"/>
<path d="" fill="#F37F85" transform="translate(0,0)"/>
<path d="" fill="#F47A7F" transform="translate(0,0)"/>
<path d="" fill="#F47D80" transform="translate(0,0)"/>
<path d="" fill="#F78081" transform="translate(0,0)"/>
<path d="" fill="#F47C7F" transform="translate(0,0)"/>
<path d="" fill="#F98286" transform="translate(0,0)"/>
<path d="" fill="#FA8486" transform="translate(0,0)"/>
<path d="" fill="#F98184" transform="translate(0,0)"/>
<path d="" fill="#F97E85" transform="translate(0,0)"/>
<path d="" fill="#FB8388" transform="translate(0,0)"/>
<path d="" fill="#FA8288" transform="translate(0,0)"/>
<path d="" fill="#F98285" transform="translate(0,0)"/>
<path d="" fill="#F98386" transform="translate(0,0)"/>
<path d="" fill="#6E6B6C" transform="translate(0,0)"/>
<path d="" fill="#FC8587" transform="translate(0,0)"/>
<path d="" fill="#F88283" transform="translate(0,0)"/>
<path d="" fill="#FB8083" transform="translate(0,0)"/>
<path d="" fill="#FB8388" transform="translate(0,0)"/>
<path d="" fill="#F78081" transform="translate(0,0)"/>
<path d="" fill="#F98387" transform="translate(0,0)"/>
<path d="" fill="#FB8687" transform="translate(0,0)"/>
<path d="" fill="#F97F84" transform="translate(0,0)"/>
<path d="" fill="#F78085" transform="translate(0,0)"/>
<path d="" fill="#FD8387" transform="translate(0,0)"/>
<path d="" fill="#FB8284" transform="translate(0,0)"/>
<path d="" fill="#FB8084" transform="translate(0,0)"/>
<path d="" fill="#FB8288" transform="translate(0,0)"/>
<path d="" fill="#FD8587" transform="translate(0,0)"/>
<path d="" fill="#FD8288" transform="translate(0,0)"/>
<path d="" fill="#FD8688" transform="translate(0,0)"/>
<path d="" fill="#FC8185" transform="translate(0,0)"/>
<path d="" fill="#FC8387" transform="translate(0,0)"/>
<path d="" fill="#FC8488" transform="translate(0,0)"/>
<path d="" fill="#FC8287" transform="translate(0,0)"/>
<path d="" fill="#FA8386" transform="translate(0,0)"/>
<path d="" fill="#FA8387" transform="translate(0,0)"/>
<path d="" fill="#FF8888" transform="translate(0,0)"/>
<path d="" fill="#FF8488" transform="translate(0,0)"/>
<path d="" fill="#FF8688" transform="translate(0,0)"/>
<path d="" fill="#FD8589" transform="translate(0,0)"/>
<path d="" fill="#FE8589" transform="translate(0,0)"/>
<path d="" fill="#6D6C6C" transform="translate(0,0)"/>
<path d="" fill="#6E6B6B" transform="translate(0,0)"/>
<path d="" fill="#6D6968" transform="translate(0,0)"/>
<path d="" fill="#6F6262" transform="translate(0,0)"/>
<path d="" fill="#71706F" transform="translate(0,0)"/>
<path d="" fill="#757374" transform="translate(0,0)"/>
<path d="" fill="#726F6F" transform="translate(0,0)"/>
<path d="" fill="#727271" transform="translate(0,0)"/>
<path d="" fill="#7A686A" transform="translate(0,0)"/>
<path d="" fill="#A96E6E" transform="translate(0,0)"/>
<path d="" fill="#716D6D" transform="translate(0,0)"/>
<path d="" fill="#757475" transform="translate(0,0)"/>
<path d="" fill="#757575" transform="translate(0,0)"/>
</svg>
