<?xml version="1.0" encoding="UTF-8"?>
<svg version="1.1" xmlns="http://www.w3.org/2000/svg" width="82" height="57">
<path d="M0 0 C0.99 0 1.98 0 3 0 C3 7.92 3 15.84 3 24 C6.94723264 21.68929928 10.89426372 19.37826057 14.84082031 17.06640625 C16.17892477 16.28268688 17.5171379 15.49915302 18.85546875 14.71582031 C20.15565359 13.95478398 21.45564284 13.19341338 22.75543213 12.43170166 C24.03447646 11.68258016 25.31421789 10.93464758 26.59466553 10.18792725 C31.14552165 7.52716895 35.62135815 4.76147827 40.05126953 1.90283203 C42 1 42 1 45 2 C45.495 11.405 45.495 11.405 46 21 C47.83111328 19.83984375 47.83111328 19.83984375 49.69921875 18.65625 C53.10221869 16.50131692 56.50902373 14.35254555 59.91796875 12.20703125 C62.97339379 10.2836255 66.01897752 8.34711583 69.05078125 6.38671875 C70.20040794 5.6534688 71.35013886 4.92038224 72.5 4.1875 C73.5003125 3.54167969 74.500625 2.89585937 75.53125 2.23046875 C78 1 78 1 81 2 C81 19.16 81 36.32 81 54 C78 55 78 55 76.22924805 54.24658203 C75.57996338 53.83778809 74.93067871 53.42899414 74.26171875 53.0078125 C73.53001465 52.5538208 72.79831055 52.0998291 72.04443359 51.63208008 C71.26664551 51.13474365 70.48885742 50.63740723 69.6875 50.125 C68.89166504 49.62701904 68.09583008 49.12903809 67.27587891 48.6159668 C64.84300724 47.08892057 62.42030542 45.54687144 60 44 C58.90437744 43.30269775 58.90437744 43.30269775 57.78662109 42.59130859 C53.84453545 40.08036141 49.92091919 37.54442629 46 35 C45.67 41.27 45.34 47.54 45 54 C41 55 41 55 38.67260742 53.97119141 C37.82545166 53.43671387 36.9782959 52.90223633 36.10546875 52.3515625 C35.15615479 51.76197754 34.20684082 51.17239258 33.22875977 50.56494141 C32.22514404 49.92476074 31.22152832 49.28458008 30.1875 48.625 C28.11743328 47.33293947 26.04712019 46.04127359 23.9765625 44.75 C22.96239258 44.11191406 21.94822266 43.47382812 20.90332031 42.81640625 C16.98740172 40.36648745 13.03102446 37.9883711 9.0625 35.625 C7.061875 34.42875 5.06125 33.2325 3 32 C3 38.27 3 44.54 3 51 C2.01 51 1.02 51 0 51 C0 34.17 0 17.34 0 0 Z " fill="#E2E2E2" transform="translate(1,0)"/>
</svg>
