<?xml version="1.0" encoding="UTF-8"?>
<svg version="1.1" xmlns="http://www.w3.org/2000/svg" width="82" height="57">
<path d="M0 0 C0.99 0 1.98 0 3 0 C3.79540811 17.08774712 4.14346807 33.91834622 3 51 C2.01 51 1.02 51 0 51 C-0.495 42.09 -0.495 42.09 -1 33 C-4.00121333 34.78965795 -7.00095981 36.58170634 -10 38.375 C-10.90105469 38.91213623 -11.80210938 39.44927246 -12.73046875 40.00268555 C-17.11315307 42.62557376 -21.46707791 45.27524069 -25.75 48.05859375 C-26.47058594 48.52410645 -27.19117188 48.98961914 -27.93359375 49.46923828 C-29.28689218 50.34894622 -30.63358737 51.23891685 -31.97265625 52.14013672 C-36.42924878 55.02722333 -36.42924878 55.02722333 -39.375 54.88671875 C-41 54 -41 54 -42 52 C-42.07194869 49.11629667 -42.09291708 46.25760336 -42.0625 43.375 C-42.05798828 42.57320312 -42.05347656 41.77140625 -42.04882812 40.9453125 C-42.03703168 38.96350994 -42.01909605 36.98174567 -42 35 C-42.50748779 35.32162109 -43.01497559 35.64324219 -43.5378418 35.97460938 C-47.66097808 38.58644133 -51.78723057 41.19317386 -55.91796875 43.79296875 C-58.97339379 45.7163745 -62.01897752 47.65288417 -65.05078125 49.61328125 C-66.20040794 50.3465312 -67.35013886 51.07961776 -68.5 51.8125 C-70.00046875 52.78123047 -70.00046875 52.78123047 -71.53125 53.76953125 C-74 55 -74 55 -77 54 C-77 36.84 -77 19.68 -77 2 C-74 1 -74 1 -71.36791992 2.29174805 C-70.33256104 2.94183838 -69.29720215 3.59192871 -68.23046875 4.26171875 C-67.67184647 4.60878372 -67.11322418 4.95584869 -66.53767395 5.31343079 C-64.74811719 6.42859489 -62.96794423 7.55785708 -61.1875 8.6875 C-59.99992423 9.42995741 -58.81177889 10.17150461 -57.62304688 10.91210938 C-52.36332697 14.19916543 -47.14998065 17.54375656 -42 21 C-42.02320313 19.80761719 -42.04640625 18.61523438 -42.0703125 17.38671875 C-42.08907178 15.82031876 -42.10727181 14.253912 -42.125 12.6875 C-42.14175781 11.90181641 -42.15851562 11.11613281 -42.17578125 10.30664062 C-42.18544922 9.1706543 -42.18544922 9.1706543 -42.1953125 8.01171875 C-42.21102295 6.96697388 -42.21102295 6.96697388 -42.22705078 5.90112305 C-42 4 -42 4 -40 1 C-35.35761468 2.36494438 -31.58111367 4.27667687 -27.46484375 6.80859375 C-26.86370255 7.1759816 -26.26256134 7.54336945 -25.64320374 7.92189026 C-23.73777214 9.08811767 -21.83758686 10.26258922 -19.9375 11.4375 C-18.65854721 12.22256604 -17.37925318 13.00707644 -16.09960938 13.79101562 C-13.74514695 15.23410902 -11.39318498 16.68098533 -9.04272461 18.13061523 C-6.37244833 19.77117573 -3.68736342 21.38758195 -1 23 C-0.67 15.41 -0.34 7.82 0 0 Z " fill="#E2E2E2" transform="translate(77,0)"/>
</svg>
