<?xml version="1.0" encoding="UTF-8"?>
<svg version="1.1" xmlns="http://www.w3.org/2000/svg" width="56" height="39">
<path d="M0 0 C0.99 0 1.98 0 3 0 C3 11.88 3 23.76 3 36 C2.01 36 1.02 36 0 36 C0 31.71 0 27.42 0 23 C-1.68609375 24.010625 -3.3721875 25.02125 -5.109375 26.0625 C-7.32264556 27.37545711 -9.53620214 28.68793216 -11.75 30 C-12.86117187 30.66773437 -13.97234375 31.33546875 -15.1171875 32.0234375 C-16.18710937 32.65507813 -17.25703125 33.28671875 -18.359375 33.9375 C-19.34389648 34.52402344 -20.32841797 35.11054687 -21.34277344 35.71484375 C-24 37 -24 37 -28 37 C-28.96070434 34.11788698 -29.10581883 32.30149956 -29.0625 29.3125 C-29.05347656 28.50425781 -29.04445313 27.69601563 -29.03515625 26.86328125 C-29.02355469 26.24839844 -29.01195313 25.63351563 -29 25 C-29.55461914 25.36351563 -30.10923828 25.72703125 -30.68066406 26.1015625 C-33.19775312 27.74382888 -35.72366388 29.37199821 -38.25 31 C-39.12269531 31.57234375 -39.99539062 32.1446875 -40.89453125 32.734375 C-41.73886719 33.27578125 -42.58320312 33.8171875 -43.453125 34.375 C-44.22817383 34.87773438 -45.00322266 35.38046875 -45.80175781 35.8984375 C-48 37 -48 37 -52 37 C-52 25.45 -52 13.9 -52 2 C-45.25 3.125 -45.25 3.125 -41.9140625 5.28515625 C-41.21152344 5.73310547 -40.50898437 6.18105469 -39.78515625 6.64257812 C-38.71587891 7.34543945 -38.71587891 7.34543945 -37.625 8.0625 C-36.88894531 8.53494141 -36.15289062 9.00738281 -35.39453125 9.49414062 C-33.59057835 10.65382463 -31.7944761 11.82570507 -30 13 C-29.95101563 12.38511719 -29.90203125 11.77023437 -29.8515625 11.13671875 C-29.77679687 10.32847656 -29.70203125 9.52023437 -29.625 8.6875 C-29.55539063 7.88699219 -29.48578125 7.08648437 -29.4140625 6.26171875 C-29 4 -29 4 -27 1 C-22.38004936 2.6693181 -18.25059261 5.01027045 -14 7.4375 C-13.30132812 7.83259766 -12.60265625 8.22769531 -11.8828125 8.63476562 C-8.2230576 10.7097776 -4.60898825 12.83460705 -1 15 C-0.67 10.05 -0.34 5.1 0 0 Z " fill="#E2E2E2" transform="translate(52,0)"/>
</svg>
