<?xml version="1.0" encoding="UTF-8"?>
<svg version="1.1" xmlns="http://www.w3.org/2000/svg" width="100" height="100">
<path d="M0 0 C1.26457031 0.63615234 1.26457031 0.63615234 2.5546875 1.28515625 C15.14860183 8.15630404 23.44028728 19.2180841 27.58081055 32.92236328 C29.81530098 43.99721101 29.43457315 58.02536419 24 68 C23.34644531 69.28197266 23.34644531 69.28197266 22.6796875 70.58984375 C17.27811817 80.40417055 9.92419484 86.94060655 0 92 C-0.76183594 92.41507812 -1.52367188 92.83015625 -2.30859375 93.2578125 C-12.74869719 98.03520383 -28.34206477 98.05264508 -39.1875 94.4375 C-41.62109375 93.328125 -41.62109375 93.328125 -44 92 C-45.40958984 91.21882813 -45.40958984 91.21882813 -46.84765625 90.421875 C-59.10123369 83.09941419 -67.05733849 73.19198418 -71.41552734 59.46728516 C-72.46516853 55.03634371 -72.48698067 50.65994309 -72.4375 46.125 C-72.42992676 45.15336914 -72.42235352 44.18173828 -72.41455078 43.18066406 C-72.25229296 36.128963 -71.41410129 30.26625423 -68 24 C-67.34644531 22.71802734 -67.34644531 22.71802734 -66.6796875 21.41015625 C-61.27811817 11.59582945 -53.92419484 5.05939345 -44 0 C-43.23816406 -0.41507812 -42.47632812 -0.83015625 -41.69140625 -1.2578125 C-29.71640519 -6.73757298 -11.53505527 -6.2758521 0 0 Z M-36 26 C-36 39.2 -36 52.4 -36 66 C-33.36 66 -30.72 66 -28 66 C-28 52.8 -28 39.6 -28 26 C-30.64 26 -33.28 26 -36 26 Z M-16 26 C-16 39.2 -16 52.4 -16 66 C-13.36 66 -10.72 66 -8 66 C-8 52.8 -8 39.6 -8 26 C-10.64 26 -13.28 26 -16 26 Z " fill="#FFFFFF" transform="translate(72,4)"/>
</svg>
