<?xml version="1.0" encoding="UTF-8"?>
<svg version="1.1" xmlns="http://www.w3.org/2000/svg" width="44" height="44">
<path d="M0 0 C5.95813323 3.54298171 10.27851957 8.47433855 12.48046875 15.08984375 C13.35156852 22.43341736 13.07206203 29.07512507 8.48046875 35.08984375 C4.11839298 39.720673 -0.13114243 42.67768378 -6.5703125 43.4609375 C-13.93347748 43.61084625 -18.95858206 43.13686636 -24.51953125 38.08984375 C-29.69885551 32.89723917 -31.82071931 28.68465201 -31.95703125 21.33984375 C-31.84088279 13.88311284 -30.21413025 9.76554455 -24.9921875 4.5703125 C-17.95448689 -1.64363689 -8.99931987 -3.2509171 0 0 Z M-25.45703125 9.65234375 C-28.90375487 14.89837393 -29.13815077 19.96732999 -28.51953125 26.08984375 C-26.95312556 32.11203858 -23.4194596 35.84606476 -18.1484375 39.015625 C-12.57132758 41.29453321 -6.80984073 41.27891599 -1.15234375 39.234375 C3.89517022 36.4439569 7.51348604 32.53272742 9.48046875 27.08984375 C10.59620197 20.83833088 10.29050765 15.59448378 6.98046875 10.08984375 C3.15911102 5.1702921 -0.80553207 2.65167484 -6.97265625 1.71875 C-14.68543957 1.32837906 -20.77736592 3.34148079 -25.45703125 9.65234375 Z " fill="#E36C86" transform="translate(31.51953125,0.91015625)"/>
<path d="M0 0 C4.36448093 0.87289619 6.26230023 1.48691309 9.8125 3.8125 C10.60269531 4.31394531 11.39289062 4.81539062 12.20703125 5.33203125 C12.79871094 5.88246094 13.39039063 6.43289062 14 7 C14 8.32 14 9.64 14 11 C12.20703125 12.66796875 12.20703125 12.66796875 9.8125 14.1875 C9.03519531 14.69667969 8.25789063 15.20585937 7.45703125 15.73046875 C5 17 5 17 0 18 C0 12.06 0 6.12 0 0 Z " fill="#E0638C" transform="translate(16,13)"/>
</svg>
