<?xml version="1.0" encoding="UTF-8"?>
<svg version="1.1" xmlns="http://www.w3.org/2000/svg" width="22" height="26">
<path d="M0 0 C2.93450797 0.49364459 5.14953655 1.52256117 7.671875 3.06640625 C8.33574219 3.46923828 8.99960938 3.87207031 9.68359375 4.28710938 C10.36550781 4.70798828 11.04742187 5.12886719 11.75 5.5625 C12.44738281 5.98724609 13.14476562 6.41199219 13.86328125 6.84960938 C15.57835717 7.89510086 17.28956473 8.94693351 19 10 C18.95703125 12.1953125 18.95703125 12.1953125 18 15 C15.77457583 16.98815749 13.27414494 18.40383057 10.6875 19.875 C10.01009766 20.29007813 9.33269531 20.70515625 8.63476562 21.1328125 C3.57328479 24.10142296 3.57328479 24.10142296 0.77270508 23.60595703 C0.1877124 23.40599121 -0.39728027 23.20602539 -1 23 C-1.02887512 19.35418313 -1.04675585 15.70839537 -1.0625 12.0625 C-1.07087891 11.02158203 -1.07925781 9.98066406 -1.08789062 8.90820312 C-1.09272461 7.42416992 -1.09272461 7.42416992 -1.09765625 5.91015625 C-1.10289307 4.99371338 -1.10812988 4.07727051 -1.11352539 3.13305664 C-1 1 -1 1 0 0 Z M1 3 C1 8.94 1 14.88 1 21 C5.62 18.36 10.24 15.72 15 13 C13.64374386 8.93123157 11.04627744 8.13490872 7.4375 6.3125 C5.313125 5.219375 3.18875 4.12625 1 3 Z " fill="#FFFFFF" transform="translate(1,1)"/>
</svg>
