<?xml version="1.0" encoding="UTF-8"?>
<svg version="1.1" xmlns="http://www.w3.org/2000/svg" width="116" height="114">
<path d="M0 0 C1.70592604 1.18217682 3.39558104 2.3884294 5.0625 3.625 C5.70703125 4.08648437 6.3515625 4.54796875 7.015625 5.0234375 C17.4003134 13.11600999 24.12884356 25.97682335 27.0625 38.625 C28.11456014 50.16514749 28.20110693 62.04551515 23.0625 72.625 C22.61519531 73.57503906 22.16789062 74.52507812 21.70703125 75.50390625 C14.01169343 90.66764164 1.1350994 100.33049667 -14.9375 105.625 C-32.17721369 109.56270733 -49.39215134 106.66502003 -64.2890625 97.3984375 C-77.11200252 88.81198504 -85.45383861 75.64446993 -88.9375 60.625 C-89.98956014 49.08485251 -90.07610693 37.20448485 -84.9375 26.625 C-84.49019531 25.67496094 -84.04289062 24.72492187 -83.58203125 23.74609375 C-76.98130808 10.7393068 -66.32923591 0.46026478 -52.484375 -4.62109375 C-35.10653875 -9.7651465 -15.80136208 -9.63028959 0 0 Z " fill="#E1E1E1" transform="translate(88.9375,7.375)"/>
<path d="M0 0 C5.6255859 1.12511718 5.6255859 1.12511718 8.7578125 3.08203125 C9.45729004 3.51410889 10.15676758 3.94618652 10.87744141 4.39135742 C11.61913574 4.86033447 12.36083008 5.32931152 13.125 5.8125 C13.8989209 6.29372314 14.6728418 6.77494629 15.47021484 7.27075195 C17.98565389 8.83855266 20.4933464 10.41819556 23 12 C24.80207483 13.13282603 26.60415821 14.26563845 28.40625 15.3984375 C32.94392214 18.25553689 37.47450707 21.12365305 42 24 C41.65146445 26.76829262 41.21569321 27.80923907 39.09277344 29.68676758 C38.27325195 30.22970459 37.45373047 30.7726416 36.609375 31.33203125 C35.70380859 31.93611816 34.79824219 32.54020508 33.86523438 33.16259766 C29.35617051 36.05414628 24.82296045 38.8980603 20.25 41.6875 C18.44211498 42.79460456 16.63480758 43.90265302 14.828125 45.01171875 C13.98958984 45.5226709 13.15105469 46.03362305 12.28710938 46.56005859 C10.32991812 47.79228682 8.47477869 49.09308645 6.609375 50.45703125 C4 52 4 52 0 51 C0 34.17 0 17.34 0 0 Z " fill="#191C2D" transform="translate(40,34)"/>
</svg>
